# xmcd CD database file
#
# Track frame offsets:
#	150
#	16332
#	38512
#	56238
#	74544
#	97870
#	118325
#	136163
#	155992
#	166546
#	185953
#
# Disc length: 2781 seconds
#
# Revision: 3
# Processed by: cddbd v1.5.1PL0 Copyright (c) Steve Scherf et al.
# Submitted via: CDex 1.51
#
DISCID=970adb0b
DTITLE=??? - LOVE PUNCH
DYEAR=2004
DGENRE=Jazz
TTITLE0=pretty voice
TTITLE1=?????
TTITLE2=?????
TTITLE3=GIRLY
TTITLE4=?????????
TTITLE5=?????
TTITLE6=????????
TTITLE7=???????
TTITLE8=???
TTITLE9=????
TTITLE10=Always Together
EXTD=YEAR: 2004
EXTT0=
EXTT1=
EXTT2=
EXTT3=
EXTT4=
EXTT5=
EXTT6=
EXTT7=
EXTT8=
EXTT9=
EXTT10=
PLAYORDER=
